<svg width="838" height="65" viewBox="0 0 838 65" fill="none" xmlns="http://www.w3.org/2000/svg">
<g clip-path="url(#clip0)">
<path d="M793.257 63.6372H789.97V1.68286H814.907C819.077 1.68286 822.925 2.56449 826.373 4.32774C829.901 6.091 832.788 8.65573 834.873 11.8617C836.958 15.1477 838 18.9147 838 23.1625C838 27.2501 836.958 31.017 834.793 34.4634C832.708 37.9097 829.901 40.5546 826.213 42.398C823.086 44.001 819.317 44.8025 814.907 44.8025H793.257V63.6372V63.6372ZM793.257 41.5966H814.907C818.676 41.5966 821.803 41.0355 824.289 39.8333C827.416 38.3105 829.982 36.1465 831.826 33.181C833.75 30.2155 834.712 26.9295 834.712 23.3228C834.712 19.7963 833.75 16.5102 831.826 13.5448C829.901 10.5793 827.335 8.33514 824.128 6.89248C821.723 5.69026 818.595 5.12922 814.827 5.12922H793.177V41.5966H793.257Z" fill="#215C98"/>
<path d="M719.569 1.68286H722.856V39.9936C722.856 43.9208 723.818 47.5275 725.823 50.8937C727.827 54.2599 730.393 56.8247 733.761 58.8284C737.049 60.7519 740.737 61.7938 744.666 61.7938C748.595 61.7938 752.203 60.8321 755.571 58.8284C758.859 56.9048 761.505 54.2599 763.509 50.8937C765.434 47.6076 766.476 43.9208 766.476 39.9936V1.68286H769.764V39.9936C769.764 44.4819 768.641 48.7297 766.396 52.5768C764.151 56.3438 761.104 59.3894 757.255 61.6335C753.486 63.8777 749.317 64.9997 744.746 64.9997C740.256 64.9997 736.006 63.8777 732.157 61.6335C728.389 59.3894 725.342 56.3438 723.097 52.5768C720.852 48.7297 719.729 44.562 719.729 39.9936V1.68286H719.569Z" fill="#215C98"/>
<path d="M678.595 0.320801C683.245 0.320801 687.495 1.44287 691.424 3.76716C695.353 6.01131 698.4 9.13708 700.725 13.0643C703.051 16.9916 704.173 21.2394 704.173 25.888V39.433C704.173 44.0816 703.051 48.3294 700.725 52.2567C698.48 56.1839 695.353 59.3097 691.424 61.634C687.495 63.8781 683.245 65.0002 678.595 65.0002C673.944 65.0002 669.694 63.8781 665.765 61.634C661.836 59.3097 658.709 56.1839 656.384 52.2567C654.139 48.3294 653.016 44.0816 653.016 39.433V25.888C653.016 21.2394 654.139 16.9916 656.384 13.0643C658.709 9.13708 661.836 6.09145 665.765 3.76716C669.694 1.52302 674.024 0.320801 678.595 0.320801ZM656.384 39.433C656.384 43.4404 657.346 47.2074 659.351 50.6537C661.355 54.0199 664.081 56.745 667.449 58.7487C670.897 60.6722 674.666 61.7141 678.675 61.7141C682.684 61.7141 686.453 60.7524 689.82 58.7487C693.268 56.745 695.995 54.0199 697.919 50.6537C699.924 47.2074 700.966 43.4404 700.966 39.433V25.888C700.966 21.8806 699.924 18.1136 697.919 14.7474C695.995 11.3011 693.268 8.57604 689.82 6.65249C686.453 4.64879 682.684 3.60687 678.675 3.60687C674.666 3.60687 670.897 4.64879 667.449 6.65249C664.081 8.57604 661.355 11.3011 659.351 14.7474C657.426 18.1136 656.384 21.8806 656.384 25.888V39.433Z" fill="#215C98"/>
<path fill-rule="evenodd" clip-rule="evenodd" d="M590.393 63.6372V1.68286H614.528C619.66 1.68286 623.91 2.56449 627.197 4.40789C630.404 6.17115 632.89 8.65573 634.654 11.7014C636.418 14.8271 637.3 18.1933 637.3 21.9603C637.3 26.6089 635.857 30.7766 633.05 34.4634C630.164 38.07 626.636 40.4745 622.306 41.6767L638.102 63.6372H634.093L618.858 42.2377L616.132 42.3179H593.76V63.6372H590.393V63.6372ZM620.301 38.7914C624.31 37.9899 627.598 35.9862 630.164 32.8604C632.81 29.7347 634.093 26.128 634.093 21.9603C634.093 18.6742 633.291 15.7088 631.687 13.0639C630.084 10.419 627.839 8.33514 624.952 6.89248C622.306 5.61011 618.938 4.96893 614.688 4.96893H593.76V39.112L620.301 38.7914Z" fill="#215C98"/>
<path d="M324.664 63.6372V1.68286H328.112L371.411 58.5078V1.68286H374.698V63.6372H371.411L327.951 6.17115V63.6372H324.664V63.6372Z" fill="#215C98"/>
<path d="M303.094 1.68286V4.96893H284.572V60.3512H303.094V63.6372H262.922V60.3512H281.365V4.96893H262.922V1.68286H303.094Z" fill="#215C98"/>
<path d="M191.96 1.60254H195.488L217.138 39.9133L238.707 1.60254H241.994V63.5569H191.96V1.60254V1.60254ZM195.247 60.351H238.707V8.25482L218.661 43.5199H215.534L195.247 7.69378V60.351Z" fill="#215C98"/>
<path d="M126.049 1.60254H129.577L151.227 39.9133L172.796 1.60254H176.083V63.5569H126.049V1.60254ZM129.336 60.351H172.796V8.25482L152.75 43.5199H149.623L129.336 7.69378V60.351V60.351Z" fill="#215C98"/>
<path d="M63.746 1.68286H107.366V4.96893H67.0336V30.0552H102.154V33.3413H67.0336V60.3512H107.366V63.6372H63.746V1.68286Z" fill="#215C98"/>
<path d="M0 63.6372V1.68286H3.28753V60.3512H46.5066V63.6372H0Z" fill="#215C98"/>
<path d="M413.908 3.28607C409.899 3.28607 406.211 4.32799 402.763 6.33169C399.395 8.25524 396.669 10.9803 394.664 14.4266C392.66 17.7928 391.617 21.5598 391.617 25.5672V37.349C391.617 41.5968 392.179 45.0432 393.381 47.7682C395.065 51.6153 397.551 54.7411 400.919 57.2257C404.286 59.6301 408.135 60.9926 412.305 61.3132V32.2996H439.487V38.1504C439.487 41.9174 438.926 45.3638 437.803 48.3292C435.959 53.2183 432.912 57.2257 428.502 60.1911C424.092 63.1566 419.281 64.6794 413.828 64.6794C408.696 64.6794 403.966 63.3169 399.636 60.5117C395.386 57.6264 392.339 53.8594 390.334 49.2109C388.891 45.9248 388.169 41.9174 388.169 37.349V25.5672C388.169 20.9186 389.292 16.6708 391.537 12.7435C393.862 8.81628 396.99 5.77065 400.919 3.44636C405.008 1.12207 409.258 0 413.908 0C417.757 0 421.285 0.641184 424.493 1.92355C427.7 3.20592 430.426 5.04932 432.671 7.45376C434.516 9.45746 435.959 11.7016 437.162 14.1862C438.364 16.6708 438.926 19.2355 438.926 21.7201H435.718C435.638 19.5561 435.077 17.3921 434.035 15.2281C432.992 13.1443 431.709 11.2207 430.105 9.53761C426.096 5.36991 420.724 3.28607 413.908 3.28607ZM436.28 35.5056H415.592V61.233C419.842 60.9125 423.691 59.6301 427.059 57.2257C430.506 54.8212 432.992 51.6153 434.596 47.6079C435.638 44.8027 436.199 41.6769 436.199 38.1504V35.5056H436.28Z" fill="#215C98"/>
<path d="M546.532 3.28607C542.523 3.28607 538.835 4.32799 535.387 6.33169C532.019 8.25524 529.293 10.9803 527.288 14.4266C525.284 17.7928 524.241 21.5598 524.241 25.5672V37.349C524.241 41.5968 524.803 45.0432 526.005 47.7682C527.689 51.6153 530.175 54.7411 533.543 57.2257C536.91 59.6301 540.759 60.9926 544.929 61.3132V32.2996H572.111V38.1504C572.111 41.9174 571.55 45.3638 570.427 48.3292C568.583 53.2183 565.536 57.2257 561.126 60.1911C556.716 63.1566 551.905 64.6794 546.452 64.6794C541.32 64.6794 536.59 63.3169 532.26 60.5117C528.01 57.6264 524.963 53.8594 522.958 49.2109C521.515 45.9248 520.793 41.9174 520.793 37.349V25.5672C520.793 20.9186 521.916 16.6708 524.161 12.7435C526.486 8.81628 529.614 5.77065 533.543 3.44636C537.632 1.12207 541.882 0 546.532 0C550.381 0 553.909 0.641184 557.117 1.92355C560.324 3.20592 563.05 5.04932 565.295 7.45376C567.14 9.45746 568.583 11.7016 569.786 14.1862C570.988 16.6708 571.55 19.2355 571.55 21.7201H568.342C568.262 19.5561 567.701 17.3921 566.658 15.2281C565.616 13.0641 564.333 11.1406 562.729 9.45746C558.8 5.36991 553.348 3.28607 546.532 3.28607ZM568.904 35.5056H548.216V61.233C552.466 60.9125 556.315 59.6301 559.682 57.2257C563.13 54.8212 565.616 51.6153 567.22 47.6079C568.262 44.8027 568.823 41.6769 568.823 38.1504V35.5056H568.904Z" fill="#215C98"/>
</g>
<defs>
<clipPath id="clip0">
<rect width="838" height="65" fill="white"/>
</clipPath>
</defs>
</svg>
